<?xml version="1.0" encoding="UTF-8" standalone="no"?>
<!-- Created with Inkscape (http://www.inkscape.org/) -->

<svg
   xmlns:dc="http://purl.org/dc/elements/1.1/"
   xmlns:cc="http://creativecommons.org/ns#"
   xmlns:rdf="http://www.w3.org/1999/02/22-rdf-syntax-ns#"
   xmlns:svg="http://www.w3.org/2000/svg"
   xmlns="http://www.w3.org/2000/svg"
   xmlns:sodipodi="http://sodipodi.sourceforge.net/DTD/sodipodi-0.dtd"
   xmlns:inkscape="http://www.inkscape.org/namespaces/inkscape"
   width="800"
   height="800"
   viewBox="0 0 800 800"
   id="svg4157"
   version="1.1"
   inkscape:version="0.91 r13725"
   sodipodi:docname="selfwin.svg"
   inkscape:export-filename="C:\Projets\Selfnet\Selfwin\Assets\selfwin.png"
   inkscape:export-xdpi="300"
   inkscape:export-ydpi="300">
  <defs
     id="defs4159" />
  <sodipodi:namedview
     id="base"
     pagecolor="#3d6d69"
     bordercolor="#666666"
     borderopacity="1.0"
     inkscape:pageopacity="0"
     inkscape:pageshadow="2"
     inkscape:zoom="0.98994949"
     inkscape:cx="246.6542"
     inkscape:cy="515.91845"
     inkscape:document-units="px"
     inkscape:current-layer="layer1"
     showgrid="false"
     inkscape:window-width="2173"
     inkscape:window-height="1401"
     inkscape:window-x="0"
     inkscape:window-y="0"
     inkscape:window-maximized="0"
     fit-margin-top="0"
     fit-margin-left="0"
     fit-margin-right="0"
     fit-margin-bottom="0"
     units="px" />
  <metadata
     id="metadata4162">
    <rdf:RDF>
      <cc:Work
         rdf:about="">
        <dc:format>image/svg+xml</dc:format>
        <dc:type
           rdf:resource="http://purl.org/dc/dcmitype/StillImage" />
        <dc:title></dc:title>
      </cc:Work>
    </rdf:RDF>
  </metadata>
  <g
     inkscape:label="Calque 1"
     inkscape:groupmode="layer"
     id="layer1"
     transform="translate(-95.410027,-204.35394)">
    <path
       style="fill:#ffffff;fill-opacity:1"
       d="m 308.18914,284.86057 c -16.61996,0 -31.37094,10.12205 -35.89008,24.61079 l -74.7336,254.88718 c -0.95238,3.09139 -1.4139,6.19957 -1.42061,9.25697 l -0.61821,282.28836 c -0.1476,67.39819 1.26712,67.94337 76.86346,67.94337 l 448.1793,0 c 73.57605,0 75.07304,0.44116 74.69762,-67.94337 l -1.54977,-282.28836 c -0.0168,-3.05737 -0.46611,-6.16558 -1.41849,-9.25697 l -74.7336,-254.88718 c -4.51915,-14.48874 -19.2909,-24.61079 -35.8922,-24.61079 l -186.7419,0 z m 42.16746,67.32147 289.15102,0 54.60153,204.44855 -44.53656,0 -22.36567,0 c -14.22969,0 -27.02009,7.16695 -33.40665,18.76815 l -38.7419,253.83381 -120.79029,0 -0.38531,-1.31142 -37.81882,-252.52239 c -6.38655,-11.6012 -19.17908,-18.76815 -33.40877,-18.76815 l -22.36356,0 -44.53867,0 z"
       id="path8"
       inkscape:connector-curvature="0"
       sodipodi:nodetypes="sccssssssccscsccccscccccsccc" />
  </g>
</svg>
