<?xml version="1.0" encoding="UTF-8" standalone="no"?>
<!-- Created with Inkscape (http://www.inkscape.org/) -->

<svg
   xmlns:dc="http://purl.org/dc/elements/1.1/"
   xmlns:cc="http://creativecommons.org/ns#"
   xmlns:rdf="http://www.w3.org/1999/02/22-rdf-syntax-ns#"
   xmlns:svg="http://www.w3.org/2000/svg"
   xmlns="http://www.w3.org/2000/svg"
   xmlns:sodipodi="http://sodipodi.sourceforge.net/DTD/sodipodi-0.dtd"
   xmlns:inkscape="http://www.inkscape.org/namespaces/inkscape"
   width="183mm"
   height="183mm"
   viewBox="0 0 648.4252 648.42519"
   id="svg4157"
   version="1.1"
   inkscape:version="0.91 r13725"
   sodipodi:docname="selfwin.svg"
   inkscape:export-filename="C:\Projets\Selfnet\Selfwin\Assets\selfwin.png"
   inkscape:export-xdpi="300"
   inkscape:export-ydpi="300">
  <defs
     id="defs4159" />
  <sodipodi:namedview
     id="base"
     pagecolor="#3d6d69"
     bordercolor="#666666"
     borderopacity="1.0"
     inkscape:pageopacity="0"
     inkscape:pageshadow="2"
     inkscape:zoom="0.98994949"
     inkscape:cx="39.992213"
     inkscape:cy="233.07574"
     inkscape:document-units="px"
     inkscape:current-layer="layer1"
     showgrid="false"
     inkscape:window-width="2173"
     inkscape:window-height="1401"
     inkscape:window-x="0"
     inkscape:window-y="0"
     inkscape:window-maximized="0"
     fit-margin-top="0"
     fit-margin-left="0"
     fit-margin-right="0"
     fit-margin-bottom="0" />
  <metadata
     id="metadata4162">
    <rdf:RDF>
      <cc:Work
         rdf:about="">
        <dc:format>image/svg+xml</dc:format>
        <dc:type
           rdf:resource="http://purl.org/dc/dcmitype/StillImage" />
        <dc:title />
      </cc:Work>
    </rdf:RDF>
  </metadata>
  <g
     inkscape:label="Calque 1"
     inkscape:groupmode="layer"
     id="layer1"
     transform="translate(-95.410027,-355.9288)">
    <path
       style="fill:#ffffff;fill-opacity:1"
       d="m 232.41454,381.35616 c -16.61996,0 -31.37094,9.43398 -35.89008,22.93781 l -74.7336,237.56066 c -0.95238,2.88124 -1.4139,5.77813 -1.42061,8.6277 l -0.61821,263.09917 c -0.1476,62.81665 1.26712,63.32478 76.86346,63.32478 l 448.1793,0 c 73.57605,0 75.07304,0.41117 74.69762,-63.32478 l -1.54977,-263.09917 c -0.0168,-2.84954 -0.46611,-5.74646 -1.41849,-8.6277 l -74.7336,-237.56066 c -4.51915,-13.50383 -19.2909,-22.93781 -35.8922,-22.93781 l -186.7419,0 z m 42.16746,62.74514 289.15102,0 54.60153,190.55071 -44.53656,0 -22.36567,0 c -14.22969,0 -27.02009,6.67976 -33.40665,17.49233 l -38.7419,236.57889 -120.79029,0 -0.38531,-1.22227 -37.81882,-235.35662 c -6.38655,-10.81257 -19.17908,-17.49233 -33.40877,-17.49233 l -22.36356,0 -44.53867,0 z"
       id="path8"
       inkscape:connector-curvature="0"
       sodipodi:nodetypes="sccssssssccscsccccscccccsccc" />
  </g>
</svg>
