<?xml version="1.0" encoding="UTF-8" standalone="no"?>
<!-- Created with Inkscape (http://www.inkscape.org/) -->

<svg
   xmlns:dc="http://purl.org/dc/elements/1.1/"
   xmlns:cc="http://creativecommons.org/ns#"
   xmlns:rdf="http://www.w3.org/1999/02/22-rdf-syntax-ns#"
   xmlns:svg="http://www.w3.org/2000/svg"
   xmlns="http://www.w3.org/2000/svg"
   xmlns:sodipodi="http://sodipodi.sourceforge.net/DTD/sodipodi-0.dtd"
   xmlns:inkscape="http://www.inkscape.org/namespaces/inkscape"
   width="183mm"
   height="183mm"
   viewBox="0 0 648.4252 648.42519"
   id="svg4157"
   version="1.1"
   inkscape:version="0.91 r13725"
   sodipodi:docname="selfwin.svg"
   inkscape:export-filename="C:\Projets\Selfnet\Selfwin\Assets\selfwin.png"
   inkscape:export-xdpi="300"
   inkscape:export-ydpi="300">
  <defs
     id="defs4159" />
  <sodipodi:namedview
     id="base"
     pagecolor="#3d6d69"
     bordercolor="#666666"
     borderopacity="1.0"
     inkscape:pageopacity="0"
     inkscape:pageshadow="2"
     inkscape:zoom="0.98994949"
     inkscape:cx="-11.179982"
     inkscape:cy="233.07574"
     inkscape:document-units="px"
     inkscape:current-layer="layer1"
     showgrid="false"
     inkscape:window-width="2173"
     inkscape:window-height="1401"
     inkscape:window-x="0"
     inkscape:window-y="0"
     inkscape:window-maximized="0"
     fit-margin-top="0"
     fit-margin-left="0"
     fit-margin-right="0"
     fit-margin-bottom="0" />
  <metadata
     id="metadata4162">
    <rdf:RDF>
      <cc:Work
         rdf:about="">
        <dc:format>image/svg+xml</dc:format>
        <dc:type
           rdf:resource="http://purl.org/dc/dcmitype/StillImage" />
        <dc:title />
      </cc:Work>
    </rdf:RDF>
  </metadata>
  <g
     inkscape:label="Calque 1"
     inkscape:groupmode="layer"
     id="layer1"
     transform="translate(-95.410027,-355.9288)">
    <g
       id="g4135"
       transform="matrix(1.0839855,0,0,1,16.32881,-0.17355657)">
      <path
         sodipodi:nodetypes="sccssssssccscsccccscccccsccc"
         inkscape:connector-curvature="0"
         id="path8"
         d="m 199.34375,356.27591 c -15.33228,0 -28.94037,10.26606 -33.10938,24.96094 L 97.291017,639.75052 c -0.878592,3.13536 -1.304358,6.28777 -1.310547,9.38867 l -0.570312,286.30469 c -0.07595,38.055 32.853122,68.91012 70.908202,68.91012 l 413.45507,0 c 38.05509,0 69.10004,-30.85552 68.91016,-68.91012 L 647.2539,649.13919 c -0.0155,-3.10087 -0.43,-6.25331 -1.30859,-9.38867 L 577.00195,381.23685 c -4.16901,-14.69488 -17.79627,-24.96094 -33.11133,-24.96094 l -172.27343,0 z m 38.90039,68.2793 266.74805,0 50.37109,207.35742 -41.08594,0 -20.63281,0 c -13.1272,0 -24.92662,7.26891 -30.81836,19.03515 l -35.74024,257.44532 -111.43164,0 -0.35546,-1.33008 -34.88868,-256.11524 c -5.89173,-11.76624 -17.69311,-19.03515 -30.82031,-19.03515 l -20.63086,0 -41.08789,0 z"
         style="fill:#ffffff;fill-opacity:1" />
      <path
         style="fill:#ffffff;fill-opacity:1;stroke:none;stroke-opacity:1"
         sodipodi:nodetypes="ccssccssccccccccccccccccccccc"
         inkscape:connector-curvature="0"
         id="path4"
         d="m 334.60965,561.62615 72.93037,24.31013 c 1.94481,0.60776 4.01117,-0.85085 4.01117,-2.91722 l 0,-103.31802 c 0,-2.06636 -2.06636,-3.52497 -4.01117,-2.91722 l -72.93037,24.31013 c -1.21551,0.36465 -2.06636,1.58015 -2.06636,2.91721 l 0,54.69778 c 0,1.33706 0.85085,2.43101 2.06636,2.91721 z m 1.58015,-28.68594 29.77991,0 0,32.69712 -29.77991,-9.1163 z m 32.81868,33.66953 0,-33.66953 36.46518,0 0,45.82459 z m 36.46518,-36.7083 -36.46518,0 0,-33.79107 36.46518,-12.15506 z m -39.50396,-32.81866 0,32.69711 -29.7799,0 0,-23.58082 z" />
    </g>
  </g>
</svg>
